# xmcd
# Copyright (C) 1995-1998 Ti Kan
#
# Track frame offsets:
#       150
#       16965
#       33203
#       47539
#       65478
#       87138
#       106225
#       127013
#       145786
#       161017
#       177773
#       198266
#
# Disc length: 2829 seconds
#
# Revision: 0
# Processed by: cddbd v1.5.2PL0 Copyright (c) Steve Scherf et al.
# Submitted via: CD-Transfer v1.0
#
DISCID=950b0b0c
DTITLE=Calido - A. Doviæ
DYEAR=08
DGENRE=
TTITLE0=Duga
TTITLE1=Prati Moj Ritam
TTITLE2=Ti
TTITLE3=Pijesak
TTITLE4=Cesta Sna
TTITLE5=Dobar Razlog
TTITLE6=Rastanak
TTITLE7=Sve Je U Redu
TTITLE8=Blue Heart
TTITLE9=Svjetla Grada
TTITLE10=Coming Home
TTITLE11=Ti (Instr.)
EXTD=
EXTT0=
EXTT1=
EXTT2=
EXTT3=
EXTT4=
EXTT5=
EXTT6=
EXTT7=
EXTT8=
EXTT9=
EXTT10=
EXTT11=
PLAYORDER=
